# Alias OBJ Model File
# Exported from SketchUp, (c) 2000-2012 Trimble Navigation Limited
# File units = meters

mtllib platano_ladoa.mtl

g Mesh1 banana1 bowl_of_fruit1 Model

usemtl Color_000
v 0.150659 0.225332 -0.20142
vt -0.824691 5.30337
vn 0.117725 -0.268824 0.955968
v 0.176156 0.220934 -0.203614
vt -1.17118 6.26514
vn -0.0150675 -0.251114 0.96784
v 0.179986 0.236886 -0.189664
vt -1.96721 5.97337
vn -0.197409 -0.904212 0.378721
v 0.1546 0.241744 -0.187068
vt -1.64368 5.00319
vn -0.0439202 -0.93185 0.360176
f 1/1/1 2/2/2 3/3/3 4/4/4 

v 0.148889 0.202006 -0.196791
vt -4.52236 2.87926
vn 0.183167 0.557122 0.809978
v 0.174435 0.198263 -0.199115
vt -5.34783 3.47945
vn 0.128937 0.562628 0.816594
vt -5.84636 2.71516
vt -5.03526 2.09292
f 5/5/5 6/6/6 2/7/2 1/8/1 

v 0.150621 0.189332 -0.176666
vt -4.97909 2.37947
vn 0.118976 0.98874 0.0907637
v 0.176119 0.185944 -0.179554
vt -5.81434 2.96323
vn 0.137713 0.986563 0.0879104
vt -6.30134 2.19153
vt -5.48012 1.58553
f 7/9/7 8/10/8 6/11/6 5/12/5 

v 0.154553 0.196853 -0.156201
vt -2.59442 4.87375
vn -0.0421906 0.670095 -0.741075
v 0.17994 0.193254 -0.159662
vt -2.96676 5.82192
vn -0.00454406 0.665553 -0.746337
vt -3.75489 5.50941
vt -3.40527 4.55223
f 9/13/9 10/14/10 8/15/8 7/16/7 

v 0.157722 0.218906 -0.150805
vt 4.24375 3.46026
vn -0.166487 -0.167235 -0.971759
v 0.183021 0.214688 -0.154417
vt 4.96218 4.18392
vn -0.180394 -0.165458 -0.969578
vt 4.37421 4.8349
vt 3.63883 4.13001
f 11/17/11 12/18/12 10/19/10 9/20/9 

v 0.183041 0.234107 -0.167769
vt 6.27068 2.12767
vn -0.262074 -0.832174 -0.488675
vt 5.80689 2.93123
vt 4.9527 2.37428
v 0.157743 0.238884 -0.164542
vt 5.42987 1.54756
vn -0.167249 -0.846959 -0.504666
f 13/21/13 12/22/12 11/23/11 14/24/14 

v 0.208026 0.226626 -0.170649
vt 7.05348 2.77529
vn -0.340483 -0.81238 -0.473403
v 0.208007 0.208886 -0.15845
vt 6.63055 3.50986
vn -0.207737 -0.16157 -0.964749
vt 5.79724 2.91768
vt 6.26018 2.11363
f 15/25/15 16/26/16 12/27/12 13/28/13 

v 0.232621 0.216457 -0.173165
vt 7.77794 3.4864
vn -0.414911 -0.786932 -0.456713
v 0.232605 0.201507 -0.162886
vt 7.42287 4.10617
vn -0.234724 -0.15702 -0.959296
vt 6.61026 3.47976
vt 7.03162 2.74428
f 17/29/17 18/30/18 16/31/16 15/32/15 

v 0.256751 0.203616 -0.175303
vt 8.44422 4.25721
vn -0.474328 -0.762161 -0.440595
v 0.25674 0.192562 -0.167702
vt 8.18315 4.71632
vn -0.275063 -0.150108 -0.949636
vt 7.39096 4.05656
vt 7.74403 3.43565
f 19/33/19 20/34/20 18/35/18 17/36/17 

v 0.280347 0.189565 -0.178032
vt 9.08666 5.02427
vn -0.713109 -0.620318 -0.326621
v 0.280341 0.183499 -0.173861
vt 8.94449 5.27683
vn -0.638853 -0.0892144 -0.764138
vt 8.13862 4.64435
vt 8.39769 4.18411
f 21/37/21 22/38/22 20/39/20 19/40/19 

usemtl Color_D02
vt 8.79744 4.58928
v 0.295241 0.180421 -0.18369
vt 9.33833 5.06941
vn -0.982941 0.117313 0.141652
vt 8.66135 4.84517
f 21/41/21 23/42/23 22/43/22

v 0.279393 0.190433 -0.184871
vt 6.56208 7.10561
vn -0.676075 -0.638427 0.367877
vt 6.86133 7.78187
vt 6.34613 7.27428
f 24/44/24 23/45/23 21/46/21

v 0.278196 0.18545 -0.189229
vt -1.30477 9.15751
vn -0.524871 -0.136278 0.840202
vt -1.59489 9.8305
vt -1.56132 9.09175
f 25/47/25 23/48/23 24/49/24

v 0.277658 0.178368 -0.187823
vt -6.98822 5.94819
vn -0.379251 0.529133 0.75907
vt -7.61375 6.29591
vt -7.1598 5.72057
f 26/50/26 23/51/23 25/52/25

v 0.278185 0.17452 -0.181713
vt -8.61971 3.4268
vn -0.364899 0.918712 0.151054
vt -9.32091 3.56572
vt -8.72894 3.16351
f 27/53/27 23/54/23 26/55/26

v 0.279378 0.176803 -0.175499
vt -8.38503 4.39885
vn -0.494504 0.641722 -0.586224
vt -9.05524 4.65406
vt -8.52538 4.17426
f 28/56/28 23/57/23 27/58/27

vt 8.97773 3.95834
vt 9.59253 4.31973
vt 8.883 4.21546
f 22/59/22 23/60/23 28/61/28

usemtl Color_000
vt 7.07609 6.37942
vt 7.65797 7.22256
vt 7.48184 7.43247
v 0.254986 0.180361 -0.170687
vt 6.75512 6.76196
vn -0.0187558 0.667277 -0.744573
f 20/62/20 22/63/22 28/64/28 29/65/29 

vt 0.627416 0.210701
vt 0.627416 -0.0791183
vt 0.833407 -0.259818
vt 1.09027 -0.195327
vt 1.20459 0.0657914
vt 1.09027 0.32691
vt 0.833407 0.391401
f 22/66/22 21/67/21 24/68/24 25/69/25 26/70/26 27/71/27 28/72/28 

v 0.255012 0.205199 -0.187766
vt 6.22986 6.09208
vn -0.489114 -0.783179 0.383923
vt 6.65271 7.13776
vt 6.43766 7.30757
vt 5.83796 6.40153
f 30/73/30 24/74/24 21/75/21 19/76/19 

v 0.252832 0.196118 -0.195708
vt -0.958497 8.01106
vn -0.290698 -0.190867 0.937584
vt -1.26292 9.08156
vt -1.51962 9.01641
vt -1.42629 7.89233
f 31/77/31 25/78/25 24/79/24 30/80/30 

v 0.251852 0.183212 -0.193146
vt -6.64022 5.38906
vn -0.0335119 0.573875 0.818257
vt -7.3898 6.13112
vt -7.5591 5.9018
vt -6.94874 4.97116
f 32/81/32 26/82/26 25/83/25 31/84/31 

v 0.252811 0.176199 -0.182011
vt -8.19622 4.40705
vn 0.0934895 0.991206 0.0936471
vt -9.00015 5.00382
vt -9.14198 4.75657
vt -8.45468 3.95646
f 33/85/33 27/86/27 26/87/26 32/88/32 

vt -4.20861 8.5742
vt -4.62959 9.46889
vt -4.87484 9.36893
vt -4.65554 8.39202
f 29/89/29 28/90/28 27/91/27 33/92/33 

v 0.230233 0.185006 -0.166924
vt -3.59629 7.76315
vn 0.00735757 0.663652 -0.748006
vt -3.97329 8.69212
vt -4.42506 8.52231
v 0.227291 0.179378 -0.182238
vt -4.20726 7.5335
vn 0.125262 0.988053 0.0897834
f 34/93/34 29/94/29 33/95/33 35/96/35 

vt 6.27189 5.75608
vt 6.84672 6.6119
vt 6.51284 6.98322
vt 5.82035 6.25825
f 18/97/18 20/98/20 29/99/29 34/100/34 

vt 5.64377 4.94528
vt 6.26878 5.75896
vt 5.81699 6.26091
v 0.205192 0.189304 -0.163242
vt 5.10764 5.54093
vn 0.00113268 0.664669 -0.747137
f 16/101/16 18/102/18 34/103/34 36/104/36 

vt -3.26723 6.80431
vt -3.64388 7.74222
vt -4.25344 7.50885
v 0.201701 0.182625 -0.181415
vt -3.9906 6.52737
vn 0.131336 0.987342 0.088918
f 36/105/36 34/106/34 35/107/35 37/108/37 

vt -6.62228 3.43481
vt -7.42498 4.05777
v 0.225995 0.188862 -0.197297
vt -7.79081 3.45804
vn 0.0206199 0.571612 0.820265
v 0.200163 0.193879 -0.199286
vt -7.05642 2.72311
vn 0.0746196 0.567509 0.819979
f 37/109/37 35/110/35 38/111/38 39/112/39 

vt -7.42155 3.97581
vt -8.20541 4.6167
vt -8.47232 4.17106
vt -7.78251 3.37313
f 35/113/35 33/114/33 32/115/32 38/116/38 

vt -6.10864 4.71059
vt -6.84796 5.46288
vt -7.15342 5.04273
v 0.22732 0.206316 -0.200761
vt -6.52175 4.14238
vn -0.218381 -0.209051 0.953209
f 38/117/38 32/118/32 31/119/31 40/120/40 

vt -0.793886 7.17988
vt -1.0824 8.2412
vt -1.54927 8.11888
v 0.230268 0.218597 -0.190021
vt -1.42528 7.01446
vn -0.417493 -0.822422 0.386421
f 40/121/40 31/122/31 30/123/30 41/124/41 

vt 5.97438 5.13621
vt 6.42868 6.15048
vt 6.04102 6.46523
vt 5.4501 5.56188
f 41/125/41 30/126/30 19/127/19 17/128/17 

v 0.205234 0.229166 -0.190652
vt 5.80723 4.24439
vn -0.312375 -0.868168 0.385625
vt 6.33403 5.17586
vt 5.82348 5.6179
vt 5.20136 4.76896
f 42/129/42 41/130/41 17/131/17 15/132/15 

v 0.201735 0.214592 -0.203396
vt -0.7801 6.6003
vn -0.119534 -0.231622 0.965434
vt -1.07613 7.62201
vt -1.7039 7.44331
vt -1.52507 6.38825
f 43/133/43 40/134/40 41/135/41 42/136/42 

vt -5.63587 4.0855
vt -6.40078 4.78861
vt -6.80613 4.21484
vt -6.11689 3.40461
f 39/137/39 38/138/38 40/139/40 43/140/43 

vt -5.10878 3.47271
vt -5.90249 4.12528
vt -6.37197 3.43638
vt -5.62266 2.71865
f 6/141/6 39/142/39 43/143/43 2/144/2 

vt -5.80754 2.90204
vt -6.62736 3.506
vt -7.06701 2.79769
vt -6.28878 2.12674
f 8/145/8 37/146/37 39/147/39 6/148/6 

vt -2.93257 5.84034
vt -3.30763 6.78468
vt -4.02933 6.50345
vt -3.72253 5.5325
f 10/149/10 36/150/36 37/151/37 8/152/8 

vt 4.96668 4.17964
vt 5.63953 4.94928
vt 5.10294 5.54452
vt 4.37933 4.83119
f 12/153/12 16/154/16 36/155/36 10/156/10 

vt -0.791306 5.98183
vt -1.1051 6.97083
vt -1.84333 6.73638
vt -1.59936 5.7252
f 2/157/2 43/158/43 42/159/42 3/160/3 

vt 5.53496 3.33788
vt 6.14199 4.18257
vt 5.55795 4.73133
vt 4.89568 3.93854
f 3/161/3 42/162/42 15/163/15 13/164/13 

vt 5.13484 2.42412
vt 5.82927 3.17492
vt 5.22163 3.80758
vt 4.50968 3.07502
f 4/165/4 3/166/3 13/167/13 14/168/14 

v 0.129151 0.242289 -0.181885
vt 4.63466 1.41723
vn 0.506291 -0.834565 0.217188
vt 5.47491 2.00026
vt 4.91747 2.71002
v 0.132207 0.239509 -0.15999
vt 4.09285 2.1071
vn 0.366229 -0.778575 -0.509605
f 44/169/44 4/170/4 14/171/14 45/172/45 

v 0.125321 0.226337 -0.195835
vt -1.12905 4.60667
vn 0.628654 -0.282778 0.724452
vt -1.5925 5.51786
vt -2.37216 5.12674
vt -1.88687 4.22651
f 46/173/46 1/174/1 4/175/4 44/176/44 

v 0.1236 0.203665 -0.191335
vt -3.90357 2.35905
vn 0.648084 0.431249 0.627704
vt -4.80192 2.84341
vt -5.28879 2.0407
vt -4.37679 1.57884
f 47/177/47 5/178/5 1/179/1 46/180/46 

v 0.125284 0.191346 -0.171775
vt -4.09052 1.86921
vn 0.568489 0.822641 0.00909656
vt -4.9775 2.3709
vt -5.47761 1.57637
vt -4.57661 1.09694
f 48/181/48 7/182/7 5/183/5 47/184/47 

v 0.129105 0.198657 -0.151882
vt -2.38467 3.79783
vn 0.42266 0.543346 -0.725351
vt -2.80666 4.72497
vt -3.60176 4.36626
vt -3.15749 3.44917
f 49/185/49 9/186/9 7/187/7 48/188/48 

v 0.132186 0.220091 -0.146638
vt 3.55027 2.71827
vn 0.327327 -0.19688 -0.924173
vt 4.363 3.33414
vt 3.77959 4.02271
vt 2.98321 3.38754
f 50/189/50 11/190/11 9/191/9 49/192/49 

vt 4.04315 1.91325
vt 4.50694 1.10969
f 50/193/50 45/194/45 14/24/14 11/23/11 

usemtl FrontColor
vt -1.87294 -0.827959
vt -1.50699 -1.66387
vt -0.684684 -1.87033
vt -0.0252493 -1.29186
vt -0.0252493 -0.364062
vt -0.684684 0.214408
vt -1.50699 0.00795444
f 47/195/47 46/196/46 44/197/44 45/198/45 50/199/50 49/200/49 48/201/48 

