# Alias OBJ Model File
# Exported from SketchUp, (c) 2000-2012 Trimble Navigation Limited
# File units = meters

mtllib platano_entero.mtl

g Mesh1 banana1 bowl_of_fruit1 Model

usemtl Color_D02
v 0.0180398 0.209882 -0.141269
vt -0.879068 0.0155893
vn 0.982911 -0.0882453 -0.161552
v 0.0282757 0.203491 -0.137072
vt -0.855669 0.518051
vn 0.508032 0.500446 -0.70104
v 0.027082 0.201208 -0.143285
vt -1.11336 0.45693
vn 0.651419 0.758655 -0.00976442
f 1/1/1 2/2/2 3/3/3

vt -0.743903 0.231933
v 0.029238 0.210187 -0.135433
vt -0.357606 0.545094
vn 0.440522 -0.19403 -0.876523
vt -0.578658 0.707022
f 1/4/1 4/5/4 2/6/2

vt -0.461172 -0.118817
v 0.0292444 0.216253 -0.139604
vt 0.0476346 -0.064955
vn 0.524078 -0.699673 -0.485593
vt -0.0768526 0.196767
f 1/7/1 5/8/5 4/9/4

vt -0.368179 -0.615136
v 0.02829 0.217121 -0.146444
vt 0.133698 -0.798702
vn 0.679329 -0.721012 0.136577
vt 0.135414 -0.524692
f 1/10/1 6/11/6 5/12/5

vt -0.603844 0.673334
v 0.0270936 0.212138 -0.150801
vt -1.09244 0.480835
vn 0.773005 -0.256593 0.580193
vt -0.944219 0.261361
f 1/13/1 7/14/7 6/15/6

vt -0.38074 0.555032
v 0.026556 0.205056 -0.149396
vt -0.832451 0.771489
vn 0.753234 0.377386 0.53872
vt -0.90247 0.495177
f 1/16/1 8/17/8 7/18/7

vt -0.586044 0.0990703
vt -0.881042 0.502369
vt -1.05456 0.276226
f 1/19/1 3/20/3 8/21/8

vt -0.558552 0.212195
v 0.0510098 0.197647 -0.151129
vt -1.44756 0.67274
vn 0.144112 0.985826 0.0859
v 0.0500511 0.20466 -0.162264
vt -1.73904 0.242775
vn 0.391198 0.528735 0.753262
vt -0.7185 -0.0237454
f 3/22/3 9/23/9 10/24/10 8/25/8 

vt -0.828673 0.115548
v 0.0531851 0.201809 -0.139805
vt -1.17642 1.04117
vn -0.0656667 0.672263 -0.737394
vt -1.61864 0.847856
vt -1.07134 0.00946675
f 2/26/2 11/27/11 9/28/9 3/29/3 

vt -0.084699 0.748858
v 0.0549388 0.21401 -0.136819
vt 0.828516 1.21307
vn -0.0551343 -0.173483 -0.983292
vt 0.492216 1.5822
vt -0.269242 0.951413
f 4/30/4 12/31/12 11/32/11 2/33/2 

vt 0.157523 0.330463
vt 0.29969 0.0779093
v 0.0549504 0.225064 -0.14442
vt 1.37536 0.231101
vn 0.155597 -0.829111 -0.536996
vt 1.11629 0.691342
f 4/34/4 5/35/5 13/36/13 12/37/12 

vt -0.627416 0.210701
vt -0.833407 0.391401
vt -1.09027 0.32691
vt -1.20459 0.0657914
vt -1.09027 -0.195327
vt -0.833407 -0.259818
vt -0.627416 -0.0791183
f 4/38/4 2/39/2 3/40/3 8/41/8 7/42/7 6/43/6 5/44/5 

vt -0.481533 0.815284
vt -1.49473 1.10848
v 0.0510308 0.217566 -0.164825
vt -1.70943 0.635478
vn 0.509319 -0.275896 0.815154
vt -0.599346 0.555724
f 8/45/8 10/46/10 14/47/14 7/48/7 

vt -1.42625 1.12517
v 0.0741065 0.205005 -0.174053
vt -2.4384 1.42196
vn 0.340827 0.537579 0.771262
v 0.0754314 0.222459 -0.177517
vt -2.7444 0.789591
vn 0.44274 -0.279317 0.852034
vt -1.65251 0.657584
f 10/49/10 15/50/15 16/51/16 14/52/14 

vt -1.40907 0.622233
v 0.075403 0.195521 -0.158994
vt -2.32658 1.05046
vn 0.112682 0.98939 0.0917086
vt -2.71299 0.463772
vt -1.6948 0.188425
f 9/53/9 17/54/17 15/55/15 10/56/10 

vt -1.20066 0.965099
v 0.0783448 0.201149 -0.14368
vt -1.61344 1.87873
vn -0.0917878 0.674189 -0.732833
vt -2.20108 1.59463
vt -1.63517 0.755029
f 11/57/11 18/58/18 17/59/17 9/60/9 

vt 0.878027 1.19248
v 0.0807165 0.217651 -0.139642
vt 1.80256 1.64865
vn -0.0970443 -0.171653 -0.980366
vt 1.36476 2.16284
vt 0.554302 1.57268
f 12/61/12 19/62/19 18/63/18 11/64/11 

vt 1.14281 0.712955
vt 1.40388 0.253839
v 0.0807323 0.2326 -0.149921
vt 2.46794 0.435494
vn 0.0903113 -0.840628 -0.53403
vt 2.11487 1.0564
f 12/65/12 13/66/13 20/67/20 19/68/19 

v 0.0532112 0.226647 -0.156884
vt 1.68564 -0.527901
vn 0.408967 -0.87863 0.246485
v 0.0783802 0.23474 -0.166777
vt 2.78927 -0.396986
vn 0.334829 -0.902381 0.27129
vt 2.53945 0.230433
vt 1.50092 -0.0639726
f 21/69/21 22/70/22 20/71/20 13/72/13 

vt -1.07392 1.68989
vt -2.05611 2.18482
vt -2.34445 1.59926
vt -1.28713 1.25691
f 14/73/14 16/74/16 22/75/22 21/76/21 

vt -1.23295 2.68768
v 0.10022 0.225381 -0.187861
vt -1.98785 3.4371
vn 0.349506 -0.281473 0.893654
v 0.103719 0.239955 -0.175116
vt -2.53096 2.88486
vn 0.227131 -0.925508 0.303062
vt -1.69062 2.22231
f 16/77/16 23/78/23 24/79/24 22/80/22 

vt -2.31645 1.46806
v 0.0986476 0.204669 -0.18375
vt -3.28988 1.83121
vn 0.289524 0.544669 0.787091
vt -3.6788 1.09383
vt -2.64418 0.846687
f 15/81/15 25/82/25 23/83/23 16/84/16 

vt -2.31033 1.0201
v 0.100186 0.193414 -0.16588
vt -3.21915 1.47445
vn 0.106613 0.98997 0.0927014
vt -3.67311 0.775234
vt -2.69287 0.430881
f 17/85/17 26/86/26 25/87/25 15/88/15 

vt -1.5986 1.90184
v 0.103677 0.200093 -0.147706
vt -2.01475 2.82291
vn -0.0855148 0.673878 -0.733877
vt -2.71534 2.49258
vt -2.18897 1.62347
f 18/89/18 27/90/27 26/91/26 17/92/17 

vt 1.80357 1.64778
v 0.106492 0.219675 -0.142915
vt 2.69302 2.15924
vn -0.124768 -0.170388 -0.977446
vt 2.17381 2.7697
vt 1.36604 2.1622
f 19/93/19 28/94/28 27/95/27 18/96/18 

vt 2.1368 1.07774
vt 2.49187 0.457973
v 0.10651 0.237416 -0.155113
vt 3.50954 0.726459
vn 0.0107128 -0.849706 -0.527148
vt 3.08818 1.46193
f 19/97/19 20/98/20 29/99/29 28/100/28 

vt 2.84319 -0.0812243
vt 3.8694 0.222133
vt 3.49485 0.930621
vt 2.52756 0.515803
f 22/101/22 24/102/24 29/103/29 20/104/20 

vt 3.83261 0.594495
v 0.129151 0.242289 -0.181885
vt 4.76861 1.04826
vn 0.110433 -0.936931 0.331611
v 0.132207 0.239509 -0.15999
vt 4.28601 1.78078
vn -0.0710188 -0.85248 -0.517913
vt 3.39172 1.26372
f 24/105/24 30/106/30 31/107/31 29/108/29 

vt -1.2063 3.6918
v 0.125321 0.226337 -0.195835
vt -1.78499 4.55302
vn 0.248757 -0.279154 0.927466
vt -2.48883 4.08036
vt -1.84932 3.25998
f 23/109/23 32/110/32 30/111/30 24/112/24 

vt -3.14309 1.8845
v 0.1236 0.203665 -0.191335
vt -4.07836 2.31004
vn 0.236847 0.551159 0.80008
vt -4.52933 1.51675
vt -3.55509 1.15976
f 25/113/25 33/114/33 32/115/32 23/116/23 

vt -3.20467 1.43658
v 0.125284 0.191346 -0.171775
vt -4.10334 1.91539
vn 0.100206 0.99055 0.0936504
vt -4.59496 1.14663
vt -3.65381 0.734254
f 26/117/26 34/118/34 33/119/33 25/120/25 

vt -1.99307 2.84708
v 0.129105 0.198657 -0.151882
vt -2.41237 3.77263
vn -0.0798006 0.673551 -0.73482
vt -3.18236 3.41777
vt -2.69652 2.52289
f 27/121/27 35/122/35 34/123/34 26/124/26 

vt 2.69502 2.15712
v 0.132186 0.220091 -0.146638
vt 3.54721 2.72179
vn -0.152503 -0.168422 -0.973846
vt 2.97945 3.39047
vt 2.17633 2.76802
f 28/125/28 36/126/36 35/127/35 27/128/27 

vt 3.10408 1.4795
vt 3.52701 0.744925
vt 4.49753 1.09879
vt 4.0346 1.90283
f 28/129/28 29/130/29 31/131/31 36/132/36 

vt 4.04315 1.91325
vt 4.50694 1.10969
v 0.157743 0.238884 -0.164542
vt 5.42987 1.54756
vn -0.167249 -0.846959 -0.504666
v 0.157722 0.218906 -0.150805
vt 4.9527 2.37428
vn -0.166487 -0.167235 -0.971759
f 36/133/36 31/134/31 37/135/37 38/136/38 

vt 4.63466 1.41723
v 0.1546 0.241744 -0.187068
vt 5.47491 2.00026
vn -0.0439202 -0.93185 0.360176
vt 4.91747 2.71002
vt 4.09285 2.1071
f 30/137/30 39/138/39 37/139/37 31/140/31 

vt -1.12905 4.60667
v 0.150659 0.225332 -0.20142
vt -1.5925 5.51786
vn 0.117725 -0.268824 0.955968
vt -2.37216 5.12674
vt -1.88687 4.22651
f 32/141/32 40/142/40 39/143/39 30/144/30 

vt -3.90357 2.35905
v 0.148889 0.202006 -0.196791
vt -4.80192 2.84341
vn 0.183167 0.557122 0.809978
vt -5.28879 2.0407
vt -4.37679 1.57884
f 33/145/33 41/146/41 40/147/40 32/148/32 

vt -4.09052 1.86921
v 0.150621 0.189332 -0.176666
vt -4.9775 2.3709
vn 0.118976 0.98874 0.0907637
vt -5.47761 1.57637
vt -4.57661 1.09694
f 34/149/34 42/150/42 41/151/41 33/152/33 

vt -2.38467 3.79783
v 0.154553 0.196853 -0.156201
vt -2.80666 4.72497
vn -0.0421906 0.670095 -0.741075
vt -3.60176 4.36626
vt -3.15749 3.44917
f 35/153/35 43/154/43 42/155/42 34/156/34 

vt 3.55027 2.71827
vt 4.363 3.33414
vt 3.77959 4.02271
vt 2.98321 3.38754
f 36/157/36 38/158/38 43/159/43 35/160/35 

vt 4.24375 3.46026
v 0.183021 0.214688 -0.154417
vt 4.96218 4.18392
vn -0.180394 -0.165458 -0.969578
v 0.17994 0.193254 -0.159662
vt 4.37421 4.8349
vn -0.00454406 0.665553 -0.746337
vt 3.63883 4.13001
f 38/161/38 44/162/44 45/163/45 43/164/43 

v 0.183041 0.234107 -0.167769
vt 6.27068 2.12767
vn -0.262074 -0.832174 -0.488675
vt 5.80689 2.93123
f 46/165/46 44/166/44 38/136/38 37/135/37 

v 0.208026 0.226626 -0.170649
vt 7.05348 2.77529
vn -0.340483 -0.81238 -0.473403
v 0.208007 0.208886 -0.15845
vt 6.63055 3.50986
vn -0.207737 -0.16157 -0.964749
vt 5.79724 2.91768
vt 6.26018 2.11363
f 47/167/47 48/168/48 44/169/44 46/170/46 

v 0.232621 0.216457 -0.173165
vt 7.77794 3.4864
vn -0.414911 -0.786932 -0.456713
v 0.232605 0.201507 -0.162886
vt 7.42287 4.10617
vn -0.234724 -0.15702 -0.959296
vt 6.61026 3.47976
vt 7.03162 2.74428
f 49/171/49 50/172/50 48/173/48 47/174/47 

v 0.256751 0.203616 -0.175303
vt 8.44422 4.25721
vn -0.474328 -0.762161 -0.440595
v 0.25674 0.192562 -0.167702
vt 8.18315 4.71632
vn -0.275063 -0.150108 -0.949636
vt 7.39096 4.05656
vt 7.74403 3.43565
f 51/175/51 52/176/52 50/177/50 49/178/49 

v 0.280347 0.189565 -0.178032
vt 9.08666 5.02427
vn -0.713109 -0.620318 -0.326621
v 0.280341 0.183499 -0.173861
vt 8.94449 5.27683
vn -0.638853 -0.0892144 -0.764138
vt 8.13862 4.64435
vt 8.39769 4.18411
f 53/179/53 54/180/54 52/181/52 51/182/51 

vt 8.79744 4.58928
v 0.295241 0.180421 -0.18369
vt 9.33833 5.06941
vn -0.982941 0.117313 0.141652
vt 8.66135 4.84517
f 53/183/53 55/184/55 54/185/54

v 0.279393 0.190433 -0.184871
vt 6.56208 7.10561
vn -0.676075 -0.638427 0.367877
vt 6.86133 7.78187
vt 6.34613 7.27428
f 56/186/56 55/187/55 53/188/53

v 0.278196 0.18545 -0.189229
vt -1.30477 9.15751
vn -0.524871 -0.136278 0.840202
vt -1.59489 9.8305
vt -1.56132 9.09175
f 57/189/57 55/190/55 56/191/56

v 0.277658 0.178368 -0.187823
vt -6.98822 5.94819
vn -0.379251 0.529133 0.75907
vt -7.61375 6.29591
vt -7.1598 5.72057
f 58/192/58 55/193/55 57/194/57

v 0.278185 0.17452 -0.181713
vt -8.61971 3.4268
vn -0.364899 0.918712 0.151054
vt -9.32091 3.56572
vt -8.72894 3.16351
f 59/195/59 55/196/55 58/197/58

v 0.279378 0.176803 -0.175499
vt -8.38503 4.39885
vn -0.494504 0.641722 -0.586224
vt -9.05524 4.65406
vt -8.52538 4.17426
f 60/198/60 55/199/55 59/200/59

vt 8.97773 3.95834
vt 9.59253 4.31973
vt 8.883 4.21546
f 54/201/54 55/202/55 60/203/60

vt 7.07609 6.37942
vt 7.65797 7.22256
vt 7.48184 7.43247
v 0.254986 0.180361 -0.170687
vt 6.75512 6.76196
vn -0.0187558 0.667277 -0.744573
f 52/204/52 54/205/54 60/206/60 61/207/61 

vt 0.627416 0.210701
vt 0.627416 -0.0791183
vt 0.833407 -0.259818
vt 1.09027 -0.195327
vt 1.20459 0.0657914
vt 1.09027 0.32691
vt 0.833407 0.391401
f 54/208/54 53/209/53 56/210/56 57/211/57 58/212/58 59/213/59 60/214/60 

v 0.255012 0.205199 -0.187766
vt 6.22986 6.09208
vn -0.489114 -0.783179 0.383923
vt 6.65271 7.13776
vt 6.43766 7.30757
vt 5.83796 6.40153
f 62/215/62 56/216/56 53/217/53 51/218/51 

v 0.252832 0.196118 -0.195708
vt -0.958497 8.01106
vn -0.290698 -0.190867 0.937584
vt -1.26292 9.08156
vt -1.51962 9.01641
vt -1.42629 7.89233
f 63/219/63 57/220/57 56/221/56 62/222/62 

v 0.251852 0.183212 -0.193146
vt -6.64022 5.38906
vn -0.0335119 0.573875 0.818257
vt -7.3898 6.13112
vt -7.5591 5.9018
vt -6.94874 4.97116
f 64/223/64 58/224/58 57/225/57 63/226/63 

v 0.252811 0.176199 -0.182011
vt -8.19622 4.40705
vn 0.0934895 0.991206 0.0936471
vt -9.00015 5.00382
vt -9.14198 4.75657
vt -8.45468 3.95646
f 65/227/65 59/228/59 58/229/58 64/230/64 

vt -4.20861 8.5742
vt -4.62959 9.46889
vt -4.87484 9.36893
vt -4.65554 8.39202
f 61/231/61 60/232/60 59/233/59 65/234/65 

v 0.230233 0.185006 -0.166924
vt -3.59629 7.76315
vn 0.00735757 0.663652 -0.748006
vt -3.97329 8.69212
vt -4.42506 8.52231
v 0.227291 0.179378 -0.182238
vt -4.20726 7.5335
vn 0.125262 0.988053 0.0897834
f 66/235/66 61/236/61 65/237/65 67/238/67 

vt 6.27189 5.75608
vt 6.84672 6.6119
vt 6.51284 6.98322
vt 5.82035 6.25825
f 50/239/50 52/240/52 61/241/61 66/242/66 

vt 5.64377 4.94528
vt 6.26878 5.75896
vt 5.81699 6.26091
v 0.205192 0.189304 -0.163242
vt 5.10764 5.54093
vn 0.00113268 0.664669 -0.747137
f 48/243/48 50/244/50 66/245/66 68/246/68 

vt -3.26723 6.80431
vt -3.64388 7.74222
vt -4.25344 7.50885
v 0.201701 0.182625 -0.181415
vt -3.9906 6.52737
vn 0.131336 0.987342 0.088918
f 68/247/68 66/248/66 67/249/67 69/250/69 

vt -6.62228 3.43481
vt -7.42498 4.05777
v 0.225995 0.188862 -0.197297
vt -7.79081 3.45804
vn 0.0206199 0.571612 0.820265
v 0.200163 0.193879 -0.199286
vt -7.05642 2.72311
vn 0.0746196 0.567509 0.819979
f 69/251/69 67/252/67 70/253/70 71/254/71 

vt -7.42155 3.97581
vt -8.20541 4.6167
vt -8.47232 4.17106
vt -7.78251 3.37313
f 67/255/67 65/256/65 64/257/64 70/258/70 

vt -6.10864 4.71059
vt -6.84796 5.46288
vt -7.15342 5.04273
v 0.22732 0.206316 -0.200761
vt -6.52175 4.14238
vn -0.218381 -0.209051 0.953209
f 70/259/70 64/260/64 63/261/63 72/262/72 

vt -0.793886 7.17988
vt -1.0824 8.2412
vt -1.54927 8.11888
v 0.230268 0.218597 -0.190021
vt -1.42528 7.01446
vn -0.417493 -0.822422 0.386421
f 72/263/72 63/264/63 62/265/62 73/266/73 

vt 5.97438 5.13621
vt 6.42868 6.15048
vt 6.04102 6.46523
vt 5.4501 5.56188
f 73/267/73 62/268/62 51/269/51 49/270/49 

v 0.205234 0.229166 -0.190652
vt 5.80723 4.24439
vn -0.312375 -0.868168 0.385625
vt 6.33403 5.17586
vt 5.82348 5.6179
vt 5.20136 4.76896
f 74/271/74 73/272/73 49/273/49 47/274/47 

v 0.201735 0.214592 -0.203396
vt -0.7801 6.6003
vn -0.119534 -0.231622 0.965434
vt -1.07613 7.62201
vt -1.7039 7.44331
vt -1.52507 6.38825
f 75/275/75 72/276/72 73/277/73 74/278/74 

vt -5.63587 4.0855
vt -6.40078 4.78861
vt -6.80613 4.21484
vt -6.11689 3.40461
f 71/279/71 70/280/70 72/281/72 75/282/75 

v 0.174435 0.198263 -0.199115
vt -5.10878 3.47271
vn 0.128937 0.562628 0.816594
vt -5.90249 4.12528
vt -6.37197 3.43638
v 0.176156 0.220934 -0.203614
vt -5.62266 2.71865
vn -0.0150675 -0.251114 0.96784
f 76/283/76 71/284/71 75/285/75 77/286/77 

v 0.176119 0.185944 -0.179554
vt -5.80754 2.90204
vn 0.137713 0.986563 0.0879104
vt -6.62736 3.506
vt -7.06701 2.79769
vt -6.28878 2.12674
f 78/287/78 69/288/69 71/289/71 76/290/76 

vt -2.93257 5.84034
vt -3.30763 6.78468
vt -4.02933 6.50345
vt -3.72253 5.5325
f 45/291/45 68/292/68 69/293/69 78/294/78 

vt 4.96668 4.17964
vt 5.63953 4.94928
vt 5.10294 5.54452
vt 4.37933 4.83119
f 44/295/44 48/296/48 68/297/68 45/298/45 

vt -2.59442 4.87375
vt -2.96676 5.82192
vt -3.75489 5.50941
vt -3.40527 4.55223
f 43/299/43 45/300/45 78/301/78 42/302/42 

vt -4.97909 2.37947
vt -5.81434 2.96323
vt -6.30134 2.19153
vt -5.48012 1.58553
f 42/303/42 78/304/78 76/305/76 41/306/41 

vt -4.52236 2.87926
vt -5.34783 3.47945
vt -5.84636 2.71516
vt -5.03526 2.09292
f 41/307/41 76/308/76 77/309/77 40/310/40 

vt -0.824691 5.30337
vt -1.17118 6.26514
v 0.179986 0.236886 -0.189664
vt -1.96721 5.97337
vn -0.197409 -0.904212 0.378721
vt -1.64368 5.00319
f 40/311/40 77/312/77 79/313/79 39/314/39 

vt -0.791306 5.98183
vt -1.1051 6.97083
vt -1.84333 6.73638
vt -1.59936 5.7252
f 77/315/77 75/316/75 74/317/74 79/318/79 

vt 5.53496 3.33788
vt 6.14199 4.18257
vt 5.55795 4.73133
vt 4.89568 3.93854
f 79/319/79 74/320/74 47/321/47 46/322/46 

vt 5.13484 2.42412
vt 5.82927 3.17492
vt 5.22163 3.80758
vt 4.50968 3.07502
f 39/323/39 79/324/79 46/325/46 37/326/37 

vt -0.327272 1.13303
vt -1.39373 1.45131
vt -1.51851 0.985089
vt -0.395744 0.877193
f 7/327/7 14/328/14 21/329/21 6/330/6 

vt 0.501568 -0.674628
vt 1.62883 -0.635463
vt 1.4723 -0.161278
vt 0.415675 -0.414423
f 6/331/6 21/332/21 13/333/13 5/334/5 

